<svg xmlns="http://www.w3.org/2000/svg" width="1024" height="512" viewBox="0 0 1024 512">
  <rect width="1024" height="512" fill="transparent"/>
  <!-- 8 frames × 4 directions, each 128x128 -->
  <g opacity="0.98">
    <!-- Row 0 -->
    <image href="/assets/images/bug-1.png" x="0" y="0" width="128" height="128" transform="rotate(-4 64 64)"/>
    <image href="/assets/images/bug-1.png" x="128" y="4" width="128" height="124" transform="rotate(-2 192 64)"/>
    <image href="/assets/images/bug-1.png" x="256" y="0" width="128" height="128"/>
    <image href="/assets/images/bug-1.png" x="384" y="6" width="128" height="122" transform="rotate(2 448 64)"/>
    <image href="/assets/images/bug-1.png" x="512" y="0" width="128" height="128" transform="rotate(4 576 64)"/>
    <image href="/assets/images/bug-1.png" x="640" y="6" width="128" height="122" transform="rotate(2 704 64)"/>
    <image href="/assets/images/bug-1.png" x="768" y="0" width="128" height="128"/>
    <image href="/assets/images/bug-1.png" x="896" y="4" width="128" height="124" transform="rotate(-2 960 64)"/>

    <!-- Row 1 -->
    <image href="/assets/images/bug-1.png" x="0" y="128" width="128" height="128" transform="rotate(-6 64 192)"/>
    <image href="/assets/images/bug-1.png" x="128" y="132" width="128" height="124" transform="rotate(-3 192 192)"/>
    <image href="/assets/images/bug-1.png" x="256" y="128" width="128" height="128" transform="rotate(-1 320 192)"/>
    <image href="/assets/images/bug-1.png" x="384" y="134" width="128" height="122" transform="rotate(1 448 192)"/>
    <image href="/assets/images/bug-1.png" x="512" y="128" width="128" height="128" transform="rotate(3 576 192)"/>
    <image href="/assets/images/bug-1.png" x="640" y="134" width="128" height="122" transform="rotate(1 704 192)"/>
    <image href="/assets/images/bug-1.png" x="768" y="128" width="128" height="128" transform="rotate(-1 832 192)"/>
    <image href="/assets/images/bug-1.png" x="896" y="132" width="128" height="124" transform="rotate(-3 960 192)"/>

    <!-- Row 2 -->
    <image href="/assets/images/bug-1.png" x="0" y="256" width="128" height="128" transform="rotate(6 64 320)"/>
    <image href="/assets/images/bug-1.png" x="128" y="260" width="128" height="124" transform="rotate(3 192 320)"/>
    <image href="/assets/images/bug-1.png" x="256" y="256" width="128" height="128" transform="rotate(1 320 320)"/>
    <image href="/assets/images/bug-1.png" x="384" y="262" width="128" height="122" transform="rotate(-1 448 320)"/>
    <image href="/assets/images/bug-1.png" x="512" y="256" width="128" height="128" transform="rotate(-3 576 320)"/>
    <image href="/assets/images/bug-1.png" x="640" y="262" width="128" height="122" transform="rotate(-1 704 320)"/>
    <image href="/assets/images/bug-1.png" x="768" y="256" width="128" height="128" transform="rotate(1 832 320)"/>
    <image href="/assets/images/bug-1.png" x="896" y="260" width="128" height="124" transform="rotate(3 960 320)"/>

    <!-- Row 3 -->
    <image href="/assets/images/bug-1.png" x="0" y="384" width="128" height="128" transform="rotate(4 64 448)"/>
    <image href="/assets/images/bug-1.png" x="128" y="388" width="128" height="124" transform="rotate(2 192 448)"/>
    <image href="/assets/images/bug-1.png" x="256" y="384" width="128" height="128"/>
    <image href="/assets/images/bug-1.png" x="384" y="390" width="128" height="122" transform="rotate(-2 448 448)"/>
    <image href="/assets/images/bug-1.png" x="512" y="384" width="128" height="128" transform="rotate(-4 576 448)"/>
    <image href="/assets/images/bug-1.png" x="640" y="390" width="128" height="122" transform="rotate(-2 704 448)"/>
    <image href="/assets/images/bug-1.png" x="768" y="384" width="128" height="128"/>
    <image href="/assets/images/bug-1.png" x="896" y="388" width="128" height="124" transform="rotate(2 960 448)"/>
  </g>
</svg>
